<?xml version="1.0" encoding="utf-8"?>
<!-- Generator: Adobe Illustrator 27.5.0, SVG Export Plug-In . SVG Version: 6.00 Build 0)  -->
<svg version="1.1" xmlns="http://www.w3.org/2000/svg" xmlns:xlink="http://www.w3.org/1999/xlink" x="0px" y="0px"
	 viewBox="0 0 800 800" style="enable-background:new 0 0 800 800;" xml:space="preserve">
<g id="_x35_8">
	<rect style="fill:#FFFFFF;" width="800" height="800"/>
	<g>
		<path style="fill:#808285;" d="M121.733,662.526h8.108l-13.537-39.309h-10.723l-13.537,39.309h8.178l3.229-9.963h15.052
			L121.733,662.526z M72.184,705.205c0,6.324,3.573,9.484,10.72,9.484c7.217,0,10.79-3.16,10.79-9.484v-10.582
			c0-5.361-3.093-8.797-9.14-8.797c-0.689,0-1.169,0-1.65,0.206L75,691.256v-18.559h-2.816V705.205z M75,694.211l7.011-4.675
			c1.03-0.617,2.13-1.028,3.298-1.028c3.438,0,5.637,2.265,5.637,7.144V705c0,4.741-2.68,7.011-8.042,7.011
			c-5.292,0-7.903-2.269-7.903-7.011V694.211z M116.717,714.003h2.816v-19.037c0-7.491-5.359-9.14-9.551-9.14
			c-2.132,0-5.225,0.138-9.211,0.549v2.818l8.111-0.618c5.153,0,7.834,1.716,7.834,6.048v3.298l-8.729,0.342
			c-6.734,0.275-9.483,3.301-9.483,7.56v1.101c0,4.674,3.366,7.766,8.728,7.766c0.688,0,1.168-0.068,1.65-0.273l7.834-5.225V714.003
			z M116.717,706.307l-7.011,4.603c-0.893,0.689-2.062,0.964-3.437,0.964c-3.023,0-5.016-2.132-5.016-4.399v-1.719
			c0-3.023,2.129-4.674,6.391-4.811l9.072-0.411V706.307z M143.174,713.933v-2.68l-1.442,0.136
			c-1.786,0.278-4.741,0.484-6.186,0.484c-5.085,0-7.696-1.856-7.696-6.668v-10.239c0-4.193,2.474-6.322,7.285-6.322
			c1.58,0,4.122,0.207,7.49,0.55v-2.818l-7.148-0.549c-4.053,0-6.803,0.756-8.246,2.475c-1.512,1.648-2.199,3.984-2.199,7.215v9.758
			c0,7.08,3.711,9.416,10.515,9.416C138.639,714.69,141.182,714.416,143.174,713.933L143.174,713.933z M167.434,714.003
			l-15.943-13.952l15.326-13.605h-3.85l-13.193,11.817h-0.619v-25.565h-2.75v41.306h2.75v-11.82h0.619l13.675,11.82H167.434z
			 M191.969,719.089c0,1.648-1.03,3.023-3.093,3.985c-2.062,1.029-4.468,1.513-7.148,1.513c-2.611,0-4.811-0.483-6.598-1.444
			c-1.785-0.824-2.748-2.2-2.748-3.916v-1.101c0-2.544,1.924-4.811,5.91-5.292l8.729,1.099c3.298,0.414,4.947,1.787,4.947,4.193
			V719.089z M180.768,688.508c5.359,0,8.04,1.99,8.04,6.045v2.064c0,4.052-2.681,6.046-8.04,6.046c-5.291,0-7.904-1.994-7.904-6.046
			v-2.064C172.863,690.498,175.477,688.508,180.768,688.508L180.768,688.508z M173.757,706.924
			c-0.069,0.138-0.138,0.412-0.138,0.893v0.894c0,1.1,0.963,2.199,1.994,2.679c-3.986,1.377-5.98,3.713-5.98,7.011v0.482
			c0,5.36,4.881,8.248,11.959,8.248c3.642,0,6.804-0.758,9.277-2.198c2.611-1.515,3.85-3.576,3.85-6.325v-0.823
			c0-3.504-2.406-5.636-7.217-6.185l-7.491-0.964c-2.337-0.273-3.505-1.167-3.505-2.611c0-0.479,0.207-0.961,0.619-1.51l1.1-1.445
			c0.893,0.138,1.717,0.138,2.474,0.138c7.216,0,10.858-3.022,10.858-9.002v-0.688c0-2.27-0.825-5.154-2.475-6.597l6.256,0.687
			h0.549v-3.16h-9.965c-1.443-0.413-3.162-0.619-5.086-0.619c-8.11,0-10.722,3.436-10.722,9.689v0.688
			c0,4.26,1.856,7.078,5.499,8.385L173.757,706.924z M202.963,714.003v-17.112c0.277-0.481,0.621-1.307,1.926-3.023
			c1.855-2.269,4.947-4.948,9.416-4.881v-2.816c-2.818-0.068-5.636,1.03-7.217,2.268c-0.756,0.549-1.511,1.236-2.131,1.992
			c-1.305,1.582-1.511,1.993-1.717,2.404h-0.277v-6.389h-2.748v27.558H202.963z M237.67,695.516c0-6.254-3.023-9.689-11.131-9.689
			c-8.182,0-11.137,3.436-11.137,9.689v9.414c0,6.254,2.955,9.76,11.137,9.76c8.107,0,11.131-3.506,11.131-9.76V695.516z
			 M218.221,695.31c0-4.397,2.75-6.802,8.318-6.802c5.566,0,8.313,2.404,8.313,6.802v9.896c0,4.399-2.746,6.806-8.313,6.806
			c-5.568,0-8.318-2.406-8.318-6.806V695.31z M243.168,686.445v19.447c0,5.36,2.887,8.797,9.209,8.797
			c0.619,0,1.168-0.068,1.58-0.273l7.902-5.225v4.812h2.82v-27.558h-2.82v19.861l-7.008,4.603c-0.895,0.689-2.061,0.964-3.369,0.964
			c-3.643,0-5.566-2.338-5.566-7.011v-18.417H243.168z M291.619,714.003v-19.45c0-5.428-2.887-8.727-9.209-8.727
			c-0.619,0-1.17,0-1.65,0.206l-7.902,5.224v-4.811h-2.748v27.558h2.748v-19.792l7.076-4.675c0.826-0.617,1.994-0.961,3.438-0.961
			c3.643,0,5.43,2.337,5.43,7.076v18.352H291.619z M318.42,714.003v-41.306h-2.818v14.297c-2.611-0.756-5.291-1.168-7.902-1.168
			c-6.459,0-10.789,2.887-10.789,9.414v10.583c0,5.36,3.092,8.866,9.211,8.866c0.617,0,1.098-0.068,1.578-0.273l7.902-5.225v4.812
			H318.42z M315.602,706.307l-7.008,4.603c-0.963,0.689-2.129,1.031-3.301,1.031c-3.436,0-5.635-2.268-5.635-7.147v-9.21
			c0-4.811,2.68-7.215,7.973-7.215c1.855,0,4.467,0.412,7.971,1.236V706.307z M110.668,630.229h0.619l4.811,15.051h-10.309
			L110.668,630.229z M133.279,653.731c0,7.491,6.047,9.484,12.026,9.484c5.91,0,11.957-1.993,11.957-9.484v-10.584
			c0-5.358-3.093-8.795-9.209-8.795c-0.618,0-1.1,0-1.58,0.203l-5.497,4.537v-17.866h-7.697V653.731z M140.977,643.148l4.74-0.755
			c2.611-0.412,3.918,0.755,3.918,3.367v7.217c0,2.68-1.512,4.053-4.329,4.053c-2.887,0-4.329-1.373-4.329-4.053V643.148z
			 M184.408,653.113c0-3.916-2.748-6.736-6.459-7.217l-5.224-0.617c-1.443-0.206-2.13-0.826-2.13-1.925v-0.55
			c0-1.443,1.031-2.061,3.986-2.061c1.718,0,4.466,0.206,8.178,0.618v-6.459l-1.1-0.139c-1.443-0.208-4.947-0.411-8.041-0.411
			c-7.009,0-10.721,1.991-10.721,7.628v2.197c0,3.85,2.749,6.735,6.461,7.217l5.291,0.619c1.375,0.205,2.063,0.825,2.063,1.924
			v0.549c0,0.758-0.207,1.238-0.619,1.582c-0.895,0.686-1.58,0.686-3.986,0.686c-2.611,0-5.635-0.344-9.071-0.823v6.595l1.649,0.208
			c2.131,0.205,6.46,0.481,9.553,0.481c6.804,0,10.17-2.682,10.17-7.972V653.113z M205.99,656.205
			c-1.239,0.138-2.475,0.275-3.645,0.275c-0.893,0-1.58-0.207-2.063-0.619c-0.893-0.963-0.824-1.786-0.824-4.123v-0.482v-10.721
			h6.668v-5.568h-6.668v-7.902h-4.466l-3.23,2.68v5.223h-4.055v5.568h4.055v13.95c0,5.707,3.644,8.662,8.798,8.662
			c2.475,0,4.26-0.209,5.43-0.484V656.205z M217.19,662.526v-14.155c1.581-3.781,4.399-5.566,8.315-5.498v-8.18
			c-2.611,0.138-4.674,1.307-5.773,2.477c-0.549,0.619-1.029,1.236-1.443,1.994c-0.688,1.441-0.756,1.922-0.756,2.197h-0.343v-6.394
			h-7.628v27.559H217.19z M244.199,654.42l-3.506,1.027c-1.166,0.347-2.131,0.553-2.818,0.553c-1.58,0-2.336-0.756-2.336-2.269
			v-0.755c0-1.377,0.896-2.131,2.68-2.27l5.98-0.411V654.42z M244.199,662.526h7.697v-18.898c0-7.008-3.986-9.276-10.996-9.276
			c-1.305,0-4.742,0.138-10.377,0.55v6.667l9.348-0.483c2.885,0,4.328,0.895,4.328,2.611v1.238l-6.254,0.344
			c-6.805,0.411-9.691,3.572-9.691,8.178v2.268c0,4.396,3.438,7.491,8.799,7.491c0.617,0,1.166-0.067,1.646-0.276l5.5-4.534V662.526
			z M277.736,662.461v-6.05l-1.236,0.206c-1.652,0.138-4.469,0.483-5.91,0.483c-2.063,0-3.365-0.346-4.123-0.827
			c-0.619-0.549-0.963-1.853-0.963-3.984v-6.736c0-3.983,1.65-5.085,4.811-5.085c1.648,0,3.916,0.138,6.871,0.55v-6.115l-8.039-0.55
			c-7.561,0-11.34,3.298-11.34,9.963v9.21c0,6.459,3.848,9.69,11.613,9.69C272.514,663.216,275.262,662.94,277.736,662.461
			L277.736,662.461z M298.355,656.205c-1.17,0.138-2.408,0.275-3.576,0.275c-0.961,0-1.647-0.207-2.131-0.619
			c-0.824-0.963-0.756-1.786-0.756-4.123v-0.482v-10.721h6.666v-5.568h-6.666v-7.902h-4.535l-3.162,2.68v5.223h-4.053v5.568h4.053
			v13.95c0,5.707,3.576,8.662,8.799,8.662c2.406,0,4.191-0.209,5.361-0.484V656.205z"/>
	</g>
	<g>
		<defs>
			<rect id="SVGID_1_" x="0.003" y="0.103" width="799.997" height="799.801"/>
		</defs>
		<clipPath id="SVGID_00000137109619914968505840000016106798679923728268_">
			<use xlink:href="#SVGID_1_"  style="overflow:visible;"/>
		</clipPath>
		<g style="clip-path:url(#SVGID_00000137109619914968505840000016106798679923728268_);">
			
				<linearGradient id="SVGID_00000093872359941956957700000011995795371486114433_" gradientUnits="userSpaceOnUse" x1="954.7104" y1="-54.8201" x2="416.4146" y2="483.4758">
				<stop  offset="0" style="stop-color:#DAFF00"/>
				<stop  offset="1" style="stop-color:#53A200"/>
			</linearGradient>
			<polygon style="fill:url(#SVGID_00000093872359941956957700000011995795371486114433_);" points="1543.961,432.577 
				911.49,61.868 362.568,-598.359 218.033,-115.151 302.404,396.542 793.039,656.057 1387.475,648.098 			"/>
			<polygon style="opacity:0.3;fill:#FFFFFF;" points="911.49,61.868 362.568,-598.359 302.404,396.542 			"/>
			<polygon style="opacity:0.3;fill:#FFFFFF;" points="1378.51,650.459 218.033,-115.151 302.404,396.542 			"/>
		</g>
	</g>
</g>
<g id="Layer_1">
</g>
</svg>
