<?xml version="1.0" encoding="utf-8"?>
<!-- Generator: Adobe Illustrator 27.5.0, SVG Export Plug-In . SVG Version: 6.00 Build 0)  -->
<svg version="1.1" id="Ñëîé_1" xmlns="http://www.w3.org/2000/svg" xmlns:xlink="http://www.w3.org/1999/xlink" x="0px" y="0px"
	 viewBox="0 0 1000 1000" style="enable-background:new 0 0 1000 1000;" xml:space="preserve">
<g>
	<radialGradient id="SVGID_1_" cx="500" cy="500" r="610.64" gradientUnits="userSpaceOnUse">
		<stop  offset="0" style="stop-color:#FFFFFF"/>
		<stop  offset="0.5455" style="stop-color:#FDFDFD"/>
		<stop  offset="0.7165" style="stop-color:#FAFAFA"/>
		<stop  offset="0.8467" style="stop-color:#F0F0F0"/>
		<stop  offset="0.9632" style="stop-color:#E0E0E0"/>
		<stop  offset="1" style="stop-color:#D9D9D9"/>
	</radialGradient>
	<rect style="fill:url(#SVGID_1_);" width="1000" height="1000"/>
	<polygon id="triangle36_158_" style="fill:#87D634;" points="604,603 571,687 773.5,581.5 	"/>
	<polygon id="triangle36_157_" style="fill:#43853A;" points="831.334,348 1000,53.334 827.334,158 	"/>
	<polygon id="triangle36_156_" style="fill:#90F41C;" points="474,1000 738,826 696.666,1000 	"/>
	<polygon id="triangle36_155_" style="fill:#43853A;" points="636.667,129.334 817.5,160 824.667,343.278 	"/>
	<polygon id="triangle36_154_" style="fill:#77B43C;" points="562,384 630.373,302.557 817.5,373.11 	"/>
	<polygon id="triangle36_153_" style="fill:#77B43C;" points="836.131,373.11 1000,454.666 792.667,574.667 	"/>
	<polygon id="triangle36_152_" style="fill:#87D634;" points="1000,484 1000,694 912.334,616 	"/>
	<polygon id="triangle36_151_" style="fill:#77B43C;" points="562,399 796.667,384 599,569 	"/>
	<polygon id="triangle36_150_" style="fill:#87D634;" points="1000,467.889 795.333,589 752,802 	"/>
	<polygon id="triangle36_149_" style="fill:#87D634;" points="738,802 784.667,594 604,738 	"/>
	<polygon id="triangle36_148_" style="fill:#90F41C;" points="758,810 896.156,625 876,901 	"/>
	<polygon id="triangle36_147_" style="fill:#90F41C;" points="562,923.266 730.667,813 600.5,748.078 	"/>
	<polygon id="triangle36_146_" style="fill:#87D634;" points="576,694 778.833,587.501 593.554,727.817 	"/>
	<polygon id="triangle36_145_" style="fill:#3D6745;" points="574.772,12 1000,40 630.373,114 	"/>
	<polygon id="triangle36_144_" style="fill:#3D6745;" points="649.082,121.11 979.065,53.334 820.667,148.5 	"/>
	<polygon id="triangle36_143_" style="fill:#90F41C;" points="896.156,908.334 1000,985 1000,723 	"/>
	<polygon id="triangle36_142_" style="fill:#90F41C;" points="709.792,1000 986.667,1000 752,816.667 	"/>
	<polygon id="triangle36_141_" style="fill:#87D634;" points="910.016,620.667 890,901 1000,704 	"/>
	<polygon id="triangle36_140_" style="fill:#77B43C;" points="604,584 778.833,574.667 817.5,384 	"/>
	<polygon id="triangle36_139_" style="fill:#3D6745;" points="606,0 1000,29 1000,0 	"/>
	<polygon id="triangle36_138_" style="fill:#77B43C;" points="844,362 1000,444 1000,372 	"/>
	<polygon id="triangle36_137_" style="fill:#43853A;" points="630.373,284 630.373,138.666 824.667,356.098 	"/>
	<polygon id="triangle36_136_" style="fill:#43853A;" points="844,348 1000,76.518 1000,356.098 	"/>
</g>
</svg>
